<svg id="svg" version="1.1" width="400" height="447.1092077087794" viewBox="0 0 400 447.1092077087794" xmlns="http://www.w3.org/2000/svg" xmlns:xlink="http://www.w3.org/1999/xlink" ><g id="svgg"><path id="path0" d="" stroke="none" fill="#000000" fill-rule="evenodd"></path><path id="path1" d="" stroke="none" fill="#555500" fill-rule="evenodd"></path><path id="path2" d="M98.700 8.289 C 99.415 8.378,100.585 8.378,101.300 8.289 C 102.015 8.201,101.430 8.128,100.000 8.128 C 98.570 8.128,97.985 8.201,98.700 8.289 " stroke="none" fill="#ff0000" fill-rule="evenodd"></path><path id="path3" d="M92.291 8.289 C 93.001 8.377,94.261 8.379,95.091 8.292 C 95.921 8.205,95.340 8.133,93.800 8.131 C 92.260 8.129,91.581 8.200,92.291 8.289 " stroke="none" fill="#ff5500" fill-rule="evenodd"></path><path id="path4" d="M16.800 22.576 C 16.800 32.059,16.941 37.200,17.200 37.200 C 17.420 37.200,17.600 37.563,17.600 38.006 C 17.600 39.082,19.180 41.449,20.300 42.051 C 20.795 42.318,21.200 42.793,21.200 43.107 C 21.200 43.422,21.740 44.183,22.400 44.800 C 23.060 45.417,23.600 46.209,23.600 46.560 C 23.600 46.912,23.780 47.200,24.000 47.200 C 24.220 47.200,24.400 47.388,24.400 47.618 C 24.400 48.161,26.239 50.000,26.782 50.000 C 27.012 50.000,27.200 50.268,27.200 50.595 C 27.200 51.143,27.830 52.078,29.100 53.416 C 29.375 53.706,29.600 54.101,29.600 54.293 C 29.600 54.486,30.185 55.288,30.900 56.076 C 33.039 58.433,34.000 59.594,34.000 59.821 C 34.000 59.940,34.450 60.486,35.000 61.036 C 35.550 61.586,36.000 62.208,36.000 62.418 C 36.000 62.627,36.720 63.541,37.600 64.448 C 38.480 65.355,39.200 66.228,39.200 66.389 C 39.200 66.550,39.740 67.246,40.400 67.937 C 41.060 68.628,41.600 69.464,41.600 69.796 C 41.600 70.128,41.750 70.400,41.932 70.400 C 42.115 70.400,42.495 70.830,42.776 71.356 C 43.058 71.882,43.718 72.542,44.244 72.824 C 44.770 73.105,45.200 73.576,45.200 73.871 C 45.200 74.166,45.740 74.972,46.400 75.663 C 47.060 76.354,47.600 77.127,47.600 77.381 C 47.600 77.996,50.186 80.800,50.754 80.800 C 50.999 80.800,51.200 81.160,51.200 81.600 C 51.200 82.040,51.380 82.400,51.600 82.400 C 51.820 82.400,52.000 82.630,52.000 82.912 C 52.000 83.193,52.360 83.683,52.800 84.000 C 53.240 84.317,53.600 84.807,53.600 85.088 C 53.600 85.370,53.780 85.600,54.000 85.600 C 54.220 85.600,54.400 85.780,54.400 85.999 C 54.400 86.219,55.030 87.066,55.800 87.882 C 56.570 88.699,57.200 89.610,57.200 89.907 C 57.200 90.204,57.380 90.336,57.600 90.200 C 57.820 90.064,58.000 90.194,58.000 90.488 C 58.000 90.783,58.360 91.283,58.800 91.600 C 59.240 91.917,59.600 92.421,59.600 92.720 C 59.600 93.019,60.410 94.073,61.400 95.063 C 62.390 96.053,63.200 97.047,63.200 97.271 C 63.200 97.495,63.740 98.183,64.400 98.800 C 65.060 99.417,65.600 100.117,65.600 100.356 C 65.600 100.831,66.398 101.870,68.100 103.613 C 68.705 104.232,69.200 104.893,69.200 105.081 C 69.200 105.269,69.560 105.683,70.000 106.000 C 70.440 106.317,70.800 106.807,70.800 107.088 C 70.800 107.370,70.968 107.600,71.173 107.600 C 71.378 107.600,71.663 107.968,71.805 108.417 C 71.948 108.866,72.770 109.953,73.632 110.833 C 74.495 111.713,75.200 112.578,75.200 112.757 C 75.200 112.935,75.740 113.646,76.400 114.337 C 77.060 115.028,77.600 115.748,77.600 115.937 C 77.600 116.126,78.140 116.846,78.800 117.537 C 79.460 118.228,80.001 118.929,80.002 119.096 C 80.003 119.263,80.813 120.254,81.802 121.299 C 82.791 122.343,83.600 123.386,83.600 123.617 C 83.600 123.848,84.005 124.446,84.500 124.946 C 84.995 125.446,85.760 126.362,86.200 126.981 C 86.640 127.600,87.585 128.706,88.300 129.440 C 89.015 130.173,89.600 131.049,89.600 131.387 C 89.600 131.724,89.780 132.000,90.000 132.000 C 90.220 132.000,90.400 132.177,90.400 132.393 C 90.400 132.785,91.618 134.277,93.700 136.433 C 94.305 137.060,94.800 137.759,94.800 137.987 C 94.800 138.214,94.980 138.400,95.200 138.400 C 95.420 138.400,95.600 138.670,95.600 139.000 C 95.600 139.330,95.780 139.600,96.000 139.600 C 96.220 139.600,96.400 139.788,96.400 140.018 C 96.400 140.248,96.850 140.886,97.400 141.436 C 97.950 141.986,98.400 142.564,98.400 142.720 C 98.400 142.877,99.120 143.769,100.000 144.703 C 100.880 145.637,101.600 146.599,101.600 146.840 C 101.600 147.082,102.140 147.783,102.800 148.400 C 103.460 149.017,104.000 149.687,104.000 149.889 C 104.000 150.091,104.810 151.102,105.800 152.135 C 106.790 153.169,107.600 154.157,107.600 154.332 C 107.600 154.506,107.920 154.998,108.311 155.425 C 108.702 155.851,109.454 156.830,109.982 157.600 C 110.510 158.370,111.519 159.545,112.225 160.211 C 112.930 160.878,113.573 161.706,113.654 162.053 C 113.824 162.784,115.631 165.133,117.500 167.052 C 118.215 167.785,118.800 168.569,118.800 168.793 C 118.800 169.017,118.980 169.200,119.200 169.200 C 119.420 169.200,119.600 169.470,119.600 169.800 C 119.600 170.130,119.780 170.400,120.000 170.400 C 120.220 170.400,120.400 170.598,120.400 170.840 C 120.400 171.081,120.940 171.783,121.600 172.400 C 122.260 173.017,122.800 173.681,122.800 173.877 C 122.800 174.073,123.430 174.901,124.200 175.718 C 124.970 176.534,125.600 177.381,125.600 177.600 C 125.600 177.820,126.320 178.741,127.200 179.648 C 128.080 180.555,128.800 181.473,128.800 181.688 C 128.800 181.904,129.430 182.710,130.200 183.480 C 130.970 184.250,131.600 185.044,131.600 185.244 C 131.600 185.889,133.865 188.000,134.557 188.000 C 135.416 188.000,137.107 186.920,138.460 185.507 C 139.044 184.898,139.743 184.400,140.014 184.400 C 140.284 184.400,140.797 184.083,141.153 183.696 C 141.509 183.308,142.520 182.461,143.400 181.812 C 144.280 181.164,145.452 180.158,146.005 179.576 C 146.558 178.995,147.548 178.230,148.205 177.876 C 148.862 177.523,149.978 176.731,150.684 176.117 C 151.390 175.503,152.624 174.460,153.424 173.800 C 154.225 173.140,155.120 172.375,155.412 172.100 C 155.704 171.825,156.142 171.600,156.385 171.600 C 156.628 171.600,157.427 171.015,158.160 170.300 C 158.894 169.585,159.978 168.652,160.571 168.226 C 161.163 167.801,162.132 167.036,162.724 166.527 C 163.316 166.018,163.953 165.601,164.140 165.600 C 164.326 165.600,164.983 165.060,165.600 164.400 C 166.217 163.740,166.887 163.200,167.089 163.200 C 167.291 163.200,168.302 162.390,169.335 161.400 C 170.369 160.410,171.404 159.600,171.636 159.600 C 171.867 159.600,172.296 159.375,172.588 159.100 C 172.880 158.825,173.782 158.060,174.593 157.400 C 175.403 156.740,176.638 155.660,177.336 155.000 C 178.034 154.340,179.095 153.547,179.692 153.238 C 180.672 152.732,182.133 151.554,184.686 149.212 C 185.173 148.766,185.758 148.400,185.986 148.400 C 186.214 148.400,186.400 148.250,186.400 148.068 C 186.400 147.885,186.895 147.480,187.500 147.168 C 188.105 146.855,189.050 146.142,189.600 145.583 C 190.150 145.024,191.320 144.036,192.200 143.388 C 193.080 142.739,194.070 141.936,194.400 141.602 C 194.730 141.268,195.468 140.755,196.039 140.462 C 197.484 139.722,199.200 138.197,199.200 137.653 C 199.200 137.404,199.478 137.200,199.818 137.200 C 201.893 137.200,203.264 133.199,201.600 132.000 C 201.160 131.683,200.800 131.193,200.800 130.912 C 200.800 130.630,200.665 130.392,200.500 130.381 C 200.335 130.371,199.570 129.473,198.800 128.386 C 198.030 127.298,197.175 126.407,196.900 126.404 C 196.625 126.402,196.400 126.132,196.400 125.805 C 196.400 125.477,196.085 124.832,195.700 124.371 C 195.315 123.910,194.685 123.160,194.300 122.705 C 193.915 122.250,193.600 121.744,193.600 121.581 C 193.600 121.418,193.082 120.705,192.449 119.996 C 190.683 118.020,190.400 117.656,190.400 117.364 C 190.400 117.215,190.076 116.803,189.681 116.447 C 189.286 116.091,188.526 115.170,187.992 114.400 C 187.459 113.630,186.613 112.552,186.111 112.004 C 185.610 111.456,185.200 110.854,185.200 110.665 C 185.200 110.476,184.660 109.817,184.000 109.200 C 183.340 108.583,182.800 107.868,182.800 107.611 C 182.800 107.353,182.575 106.904,182.300 106.612 C 182.025 106.320,181.260 105.418,180.600 104.607 C 179.940 103.797,178.815 102.525,178.100 101.780 C 177.385 101.036,176.800 100.186,176.800 99.892 C 176.800 99.597,176.215 98.712,175.500 97.924 C 173.086 95.264,172.400 94.395,172.400 93.997 C 172.400 93.779,172.220 93.600,172.000 93.600 C 171.780 93.600,171.600 93.330,171.600 93.000 C 171.600 92.670,171.420 92.400,171.200 92.400 C 170.980 92.400,170.800 92.218,170.800 91.996 C 170.800 91.774,170.260 91.028,169.600 90.337 C 168.940 89.646,168.400 88.904,168.400 88.688 C 168.400 88.472,167.770 87.700,167.000 86.974 C 166.230 86.248,165.600 85.444,165.600 85.187 C 165.600 84.931,165.060 84.217,164.400 83.600 C 163.740 82.983,163.200 82.281,163.200 82.040 C 163.200 81.798,163.020 81.600,162.800 81.600 C 162.580 81.600,162.400 81.353,162.400 81.051 C 162.400 80.749,161.770 79.964,161.000 79.306 C 160.230 78.648,159.600 77.855,159.600 77.543 C 159.600 77.232,159.240 76.717,158.800 76.400 C 158.360 76.083,158.000 75.593,158.000 75.312 C 158.000 75.030,157.820 74.800,157.600 74.800 C 157.380 74.800,157.200 74.565,157.200 74.278 C 157.200 73.991,156.615 73.107,155.900 72.314 C 155.185 71.521,154.240 70.373,153.800 69.764 C 153.360 69.154,152.595 68.246,152.100 67.746 C 151.605 67.246,151.200 66.675,151.200 66.478 C 151.200 66.280,150.693 65.588,150.074 64.940 C 149.454 64.292,148.830 63.455,148.686 63.081 C 148.543 62.706,148.239 62.400,148.013 62.400 C 147.786 62.400,147.600 62.170,147.600 61.888 C 147.600 61.607,147.240 61.117,146.800 60.800 C 146.360 60.483,146.000 60.038,146.000 59.812 C 145.999 59.585,145.594 58.920,145.100 58.334 C 143.022 55.871,142.800 55.577,142.800 55.292 C 142.800 55.127,142.174 54.454,141.409 53.796 C 140.643 53.138,140.013 52.285,140.009 51.900 C 140.004 51.515,139.820 51.200,139.600 51.200 C 139.380 51.200,139.200 50.970,139.200 50.688 C 139.200 50.407,138.840 49.917,138.400 49.600 C 137.960 49.283,137.600 48.880,137.600 48.705 C 137.600 48.529,136.970 47.774,136.200 47.026 C 135.430 46.279,134.800 45.382,134.800 45.033 C 134.800 44.685,134.620 44.400,134.400 44.400 C 134.180 44.400,134.000 44.218,134.000 43.996 C 134.000 43.774,133.460 43.028,132.800 42.337 C 132.140 41.646,131.600 40.904,131.600 40.688 C 131.600 40.472,130.970 39.700,130.200 38.974 C 129.430 38.248,128.800 37.444,128.800 37.187 C 128.800 36.931,128.260 36.217,127.600 35.600 C 126.940 34.983,126.400 34.294,126.400 34.068 C 126.400 33.842,125.770 32.989,125.000 32.173 C 124.230 31.356,123.600 30.568,123.600 30.422 C 123.600 30.276,123.008 29.510,122.285 28.720 C 121.561 27.930,120.445 26.455,119.805 25.442 C 119.164 24.429,118.406 23.600,118.120 23.600 C 117.834 23.600,117.600 23.280,117.600 22.888 C 117.600 22.497,117.240 21.917,116.800 21.600 C 116.360 21.283,116.000 20.793,116.000 20.512 C 116.000 20.230,115.850 20.000,115.668 20.000 C 115.485 20.000,115.080 19.505,114.768 18.900 C 114.087 17.581,112.356 15.760,111.915 15.900 C 111.742 15.955,111.600 15.640,111.600 15.200 C 111.600 14.760,111.420 14.400,111.200 14.400 C 110.980 14.400,110.800 14.170,110.800 13.888 C 110.800 13.607,110.440 13.117,110.000 12.800 C 109.560 12.483,109.200 12.038,109.200 11.812 C 109.195 8.353,106.231 8.140,56.700 8.036 L 16.800 7.953 16.800 22.576 M377.200 25.490 C 376.430 26.085,375.509 26.893,375.153 27.286 C 374.797 27.678,374.284 28.000,374.014 28.000 C 373.743 28.000,373.017 28.540,372.400 29.200 C 371.783 29.860,371.050 30.400,370.771 30.400 C 370.492 30.400,369.524 31.165,368.621 32.100 C 367.719 33.035,366.493 34.054,365.897 34.364 C 365.301 34.674,364.495 35.219,364.107 35.575 C 363.718 35.931,362.770 36.657,362.000 37.189 C 361.230 37.721,360.204 38.571,359.719 39.078 C 359.235 39.585,358.676 40.000,358.478 40.000 C 358.281 40.000,357.566 40.528,356.891 41.174 C 356.215 41.819,355.154 42.616,354.531 42.945 C 353.909 43.274,352.804 44.096,352.075 44.771 C 351.347 45.447,350.654 46.000,350.536 46.000 C 350.418 46.000,349.817 46.540,349.200 47.200 C 348.583 47.860,347.901 48.400,347.683 48.400 C 347.465 48.400,346.386 49.210,345.284 50.200 C 344.183 51.190,343.084 52.000,342.841 52.000 C 342.599 52.000,342.400 52.180,342.400 52.400 C 342.400 52.620,342.212 52.800,341.982 52.800 C 341.752 52.800,341.114 53.250,340.564 53.800 C 340.014 54.350,339.437 54.803,339.282 54.806 C 339.127 54.810,338.190 55.527,337.200 56.400 C 336.210 57.273,335.263 57.990,335.096 57.994 C 334.929 57.997,334.228 58.540,333.537 59.200 C 332.846 59.860,332.104 60.400,331.888 60.400 C 331.671 60.400,331.203 60.717,330.847 61.104 C 330.491 61.492,329.480 62.339,328.600 62.988 C 327.720 63.636,326.523 64.669,325.940 65.283 C 325.356 65.897,324.715 66.400,324.516 66.400 C 324.182 66.400,321.042 68.864,318.914 70.796 C 318.427 71.238,317.842 71.600,317.614 71.600 C 317.386 71.600,317.200 71.780,317.200 72.000 C 317.200 72.220,316.965 72.400,316.678 72.400 C 316.391 72.400,315.515 72.985,314.732 73.700 C 312.383 75.843,310.219 77.590,309.905 77.595 C 309.586 77.600,308.618 78.361,306.718 80.100 C 306.056 80.705,305.381 81.200,305.216 81.200 C 305.051 81.200,304.441 81.641,303.858 82.181 L 302.800 83.162 302.800 136.301 C 302.800 168.803,302.946 189.588,303.175 189.820 C 303.381 190.029,303.606 191.008,303.675 191.997 C 303.812 193.968,304.616 194.527,305.723 193.420 C 306.064 193.079,306.452 192.800,306.585 192.800 C 306.718 192.800,307.457 192.170,308.227 191.400 C 308.997 190.630,309.792 190.000,309.995 190.000 C 310.198 190.000,310.777 189.591,311.282 189.090 C 311.787 188.590,312.920 187.645,313.800 186.991 C 314.680 186.338,315.877 185.307,316.460 184.701 C 317.044 184.096,317.674 183.598,317.860 183.596 C 318.047 183.594,318.990 182.964,319.956 182.196 C 320.922 181.428,321.878 180.800,322.080 180.800 C 322.282 180.800,322.336 180.620,322.200 180.400 C 322.064 180.180,322.194 180.000,322.488 180.000 C 322.783 180.000,323.283 179.640,323.600 179.200 C 323.917 178.760,324.407 178.400,324.688 178.400 C 324.970 178.400,325.200 178.259,325.200 178.086 C 325.200 177.914,325.695 177.480,326.300 177.121 C 327.926 176.159,329.415 174.767,329.290 174.327 C 329.230 174.114,329.335 174.036,329.524 174.153 C 329.875 174.370,331.384 173.318,333.042 171.700 C 333.549 171.205,334.121 170.800,334.313 170.800 C 334.504 170.800,335.544 169.990,336.622 169.000 C 337.700 168.010,338.739 167.200,338.931 167.200 C 339.122 167.200,339.783 166.660,340.400 166.000 C 341.017 165.340,341.769 164.800,342.072 164.800 C 342.375 164.800,342.883 164.440,343.200 164.000 C 343.517 163.560,343.976 163.200,344.221 163.200 C 344.465 163.200,344.906 162.750,345.200 162.200 C 345.494 161.650,346.025 161.200,346.379 161.200 C 346.734 161.200,347.283 160.840,347.600 160.400 C 347.917 159.960,348.367 159.600,348.600 159.600 C 348.833 159.600,349.283 159.240,349.600 158.800 C 349.917 158.360,350.388 158.000,350.647 158.000 C 350.906 158.000,351.636 157.415,352.270 156.700 C 352.904 155.985,353.908 155.147,354.501 154.838 C 355.094 154.529,356.206 153.719,356.973 153.038 C 359.316 150.959,361.251 149.430,362.340 148.800 C 362.910 148.470,364.042 147.525,364.857 146.700 C 365.671 145.875,366.535 145.200,366.776 145.200 C 367.017 145.200,367.826 144.570,368.574 143.800 C 369.321 143.030,370.048 142.400,370.188 142.400 C 370.552 142.400,375.997 138.012,377.260 136.701 C 377.844 136.095,378.609 135.600,378.960 135.600 C 379.312 135.600,379.600 135.450,379.600 135.268 C 379.600 135.085,380.050 134.694,380.600 134.400 L 381.600 133.865 381.600 107.506 C 381.600 91.514,381.450 80.866,381.218 80.433 C 380.987 80.003,380.814 69.129,380.780 53.059 C 380.748 37.430,380.575 26.400,380.363 26.400 C 380.163 26.400,380.000 25.950,380.000 25.400 C 380.000 24.068,379.000 24.100,377.200 25.490 M16.800 175.600 C 16.800 293.815,16.437 282.012,19.973 278.780 C 20.948 277.888,22.253 276.859,22.873 276.493 C 23.493 276.127,24.000 275.686,24.000 275.514 C 24.000 275.341,24.186 275.200,24.413 275.200 C 24.641 275.200,25.427 274.615,26.160 273.900 C 26.894 273.185,28.001 272.240,28.622 271.800 C 29.242 271.360,30.340 270.415,31.062 269.700 C 31.783 268.985,32.558 268.400,32.784 268.400 C 33.010 268.400,34.017 267.590,35.021 266.600 C 36.025 265.610,36.983 264.800,37.148 264.800 C 37.314 264.800,37.808 264.465,38.248 264.056 C 38.687 263.647,39.919 262.646,40.985 261.832 C 42.051 261.019,43.390 259.868,43.962 259.276 C 44.533 258.684,45.450 257.966,46.000 257.681 C 47.372 256.969,50.000 254.576,50.000 254.039 C 50.000 253.798,50.283 253.600,50.629 253.600 C 50.974 253.600,51.489 253.375,51.773 253.100 C 52.057 252.825,52.985 252.060,53.836 251.400 C 55.983 249.734,58.574 247.460,58.733 247.100 C 58.807 246.935,59.122 246.800,59.433 246.800 C 59.745 246.800,60.000 246.620,60.000 246.400 C 60.000 246.180,60.180 246.000,60.400 246.000 C 60.619 246.000,61.541 245.280,62.448 244.400 C 63.355 243.520,64.256 242.800,64.451 242.800 C 64.645 242.800,65.569 242.035,66.502 241.100 C 67.436 240.165,68.652 239.167,69.205 238.883 C 69.758 238.599,71.052 237.609,72.081 236.683 C 73.997 234.959,74.900 234.226,77.000 232.691 C 77.660 232.208,79.060 230.955,80.112 229.907 C 81.163 228.858,82.288 228.000,82.612 228.000 C 82.935 228.000,83.200 227.820,83.200 227.600 C 83.200 227.380,83.386 227.200,83.613 227.200 C 83.841 227.200,84.648 226.615,85.406 225.900 C 87.984 223.472,88.771 222.800,89.039 222.800 C 89.186 222.800,89.597 222.476,89.953 222.081 C 90.309 221.686,91.230 220.923,92.000 220.387 C 95.089 218.235,94.800 220.758,94.800 195.940 C 94.800 176.666,94.719 173.576,94.200 173.057 C 93.870 172.727,93.600 172.304,93.600 172.117 C 93.600 171.930,93.240 171.517,92.800 171.200 C 92.360 170.883,92.000 170.391,92.000 170.108 C 92.000 169.825,91.460 169.028,90.800 168.337 C 90.140 167.646,89.600 166.881,89.600 166.637 C 89.600 166.392,88.974 165.654,88.209 164.996 C 87.443 164.338,86.813 163.525,86.809 163.188 C 86.804 162.852,86.440 162.317,86.000 162.000 C 85.560 161.683,85.200 161.193,85.200 160.912 C 85.200 160.630,85.020 160.400,84.800 160.400 C 84.580 160.400,84.400 160.175,84.400 159.900 C 84.399 159.237,82.629 157.200,82.053 157.200 C 81.804 157.200,81.600 156.840,81.600 156.400 C 81.600 155.960,81.420 155.600,81.200 155.600 C 80.980 155.600,80.800 155.330,80.800 155.000 C 80.800 154.670,80.659 154.400,80.486 154.400 C 80.314 154.400,79.876 153.905,79.513 153.300 C 78.710 151.960,77.809 150.773,76.100 148.802 C 75.385 147.978,74.800 147.100,74.800 146.852 C 74.800 146.603,74.620 146.400,74.400 146.400 C 74.180 146.400,74.000 146.218,74.000 145.996 C 74.000 145.774,73.460 145.028,72.800 144.337 C 72.140 143.646,71.600 142.929,71.600 142.744 C 71.600 142.434,70.520 141.040,69.300 139.775 C 69.025 139.490,68.800 139.104,68.800 138.917 C 68.800 138.730,68.440 138.317,68.000 138.000 C 67.560 137.683,67.200 137.249,67.200 137.037 C 67.200 136.606,63.597 131.877,63.110 131.667 C 62.939 131.593,62.800 131.278,62.800 130.967 C 62.800 130.655,62.620 130.400,62.400 130.400 C 62.180 130.400,62.000 130.130,62.000 129.800 C 62.000 129.470,61.820 129.200,61.600 129.200 C 61.380 129.200,61.200 128.970,61.200 128.688 C 61.200 128.407,60.840 127.917,60.400 127.600 C 59.960 127.283,59.600 126.827,59.600 126.587 C 59.600 126.347,59.280 125.802,58.888 125.375 C 58.496 124.949,57.643 123.880,56.992 123.000 C 56.341 122.120,55.536 121.130,55.202 120.800 C 54.868 120.470,54.326 119.660,53.997 119.000 C 53.669 118.340,52.918 117.260,52.330 116.600 C 49.880 113.854,49.201 112.977,49.200 112.562 C 49.200 112.321,48.856 111.813,48.437 111.433 C 48.017 111.053,47.455 110.215,47.188 109.571 C 46.921 108.927,46.532 108.400,46.323 108.400 C 45.794 108.400,45.105 107.611,44.403 106.200 C 44.074 105.540,43.526 104.730,43.184 104.400 C 42.842 104.070,42.125 103.170,41.592 102.400 C 41.058 101.630,40.302 100.651,39.911 100.225 C 39.520 99.798,39.200 99.311,39.200 99.143 C 39.200 98.974,38.750 98.386,38.200 97.836 C 37.650 97.286,37.200 96.624,37.200 96.365 C 37.200 96.106,36.876 95.603,36.479 95.247 C 36.083 94.891,35.230 93.880,34.584 93.000 C 33.938 92.120,33.092 91.109,32.704 90.753 C 32.317 90.397,32.000 89.852,32.000 89.541 C 32.000 89.231,31.640 88.717,31.200 88.400 C 30.760 88.083,30.400 87.676,30.400 87.495 C 30.400 87.100,29.833 86.364,28.100 84.511 C 27.385 83.746,26.800 82.902,26.800 82.635 C 26.800 82.369,26.440 81.764,26.000 81.292 C 25.560 80.820,25.200 80.323,25.200 80.188 C 25.200 80.053,24.975 79.711,24.700 79.427 C 24.425 79.143,23.660 78.224,23.000 77.385 C 22.340 76.545,21.575 75.633,21.300 75.358 C 21.025 75.082,20.800 74.664,20.800 74.429 C 20.800 74.193,20.650 74.000,20.468 74.000 C 20.285 74.000,19.880 73.505,19.568 72.900 C 18.798 71.409,18.178 70.800,17.429 70.800 C 16.859 70.800,16.800 80.594,16.800 175.600 M213.543 152.080 C 213.257 152.476,212.877 152.800,212.697 152.800 C 212.518 152.800,211.926 153.205,211.381 153.700 C 210.837 154.195,209.988 154.967,209.496 155.415 C 209.003 155.863,207.700 156.846,206.600 157.600 C 205.500 158.354,204.187 159.382,203.682 159.885 C 203.177 160.388,202.622 160.800,202.448 160.800 C 202.275 160.800,201.353 161.520,200.400 162.400 C 199.447 163.280,198.467 164.000,198.222 164.000 C 197.977 164.000,197.517 164.360,197.200 164.800 C 196.883 165.240,196.412 165.600,196.154 165.600 C 195.897 165.600,195.582 165.870,195.455 166.200 C 195.329 166.530,195.022 166.800,194.773 166.800 C 194.524 166.800,193.844 167.305,193.260 167.921 C 192.677 168.538,191.300 169.653,190.200 170.398 C 189.100 171.144,188.140 171.899,188.067 172.077 C 187.993 172.255,187.765 172.400,187.560 172.400 C 187.354 172.400,186.574 173.030,185.826 173.800 C 185.079 174.570,184.182 175.200,183.833 175.200 C 183.485 175.200,183.200 175.380,183.200 175.600 C 183.200 175.820,183.014 176.000,182.787 176.000 C 182.559 176.000,181.752 176.585,180.994 177.300 C 178.251 179.883,177.622 180.400,177.214 180.400 C 176.986 180.400,176.800 180.568,176.800 180.773 C 176.800 180.978,176.477 181.249,176.083 181.374 C 175.688 181.499,174.698 182.231,173.882 183.001 C 173.066 183.770,172.244 184.400,172.055 184.400 C 171.866 184.400,170.841 185.210,169.778 186.200 C 168.715 187.190,167.625 188.000,167.356 188.000 C 167.087 188.000,166.807 188.138,166.733 188.307 C 166.660 188.476,165.700 189.330,164.600 190.205 C 163.500 191.081,162.309 192.112,161.953 192.498 C 161.597 192.884,161.052 193.200,160.741 193.200 C 160.431 193.200,159.917 193.560,159.600 194.000 C 159.283 194.440,158.877 194.800,158.697 194.800 C 158.383 194.800,157.870 195.227,155.090 197.800 C 154.377 198.460,153.289 199.262,152.671 199.581 C 152.054 199.901,151.022 200.665,150.380 201.280 C 149.737 201.894,148.994 202.442,148.730 202.498 C 147.694 202.717,146.000 204.570,146.000 205.483 C 146.000 206.472,146.209 206.799,148.200 208.925 C 148.860 209.629,149.640 210.671,149.933 211.239 C 150.227 211.807,151.002 212.886,151.655 213.636 C 152.309 214.386,153.419 215.696,154.122 216.547 C 154.825 217.398,155.625 218.330,155.900 218.618 C 156.175 218.907,156.400 219.309,156.400 219.512 C 156.400 219.715,156.940 220.446,157.600 221.137 C 158.260 221.828,158.800 222.548,158.800 222.738 C 158.800 222.928,159.610 223.917,160.600 224.936 C 161.590 225.955,162.400 226.937,162.400 227.119 C 162.400 227.300,162.715 227.798,163.100 228.225 C 163.485 228.652,164.332 229.721,164.983 230.600 C 165.634 231.480,166.640 232.650,167.218 233.200 C 167.797 233.750,168.524 234.671,168.835 235.247 C 169.423 236.336,170.881 238.198,173.100 240.694 C 173.815 241.498,174.400 242.314,174.400 242.507 C 174.400 242.699,174.625 243.096,174.900 243.388 C 175.175 243.680,175.940 244.581,176.600 245.390 C 177.260 246.199,178.205 247.289,178.700 247.812 C 179.195 248.336,179.600 248.952,179.600 249.182 C 179.600 249.412,179.768 249.600,179.973 249.600 C 180.178 249.600,180.447 249.915,180.570 250.300 C 180.693 250.685,181.470 251.749,182.297 252.664 C 183.124 253.579,184.160 254.827,184.600 255.436 C 185.040 256.046,185.805 256.954,186.300 257.454 C 186.795 257.954,187.200 258.513,187.200 258.696 C 187.200 258.879,187.915 259.832,188.789 260.814 C 189.662 261.797,190.382 262.729,190.389 262.887 C 190.395 263.044,191.030 263.803,191.800 264.573 C 192.570 265.343,193.200 266.152,193.200 266.371 C 193.200 266.590,194.010 267.603,195.000 268.621 C 195.990 269.640,196.800 270.687,196.800 270.948 C 196.800 271.210,197.160 271.683,197.600 272.000 C 198.040 272.317,198.400 272.807,198.400 273.088 C 198.400 274.047,200.742 273.661,201.974 272.500 C 203.818 270.761,204.783 270.000,205.145 270.000 C 205.330 270.000,206.003 269.503,206.641 268.895 C 207.278 268.287,208.520 267.254,209.400 266.599 C 210.280 265.944,211.291 265.092,211.647 264.704 C 212.003 264.317,212.453 264.000,212.647 264.000 C 212.841 263.999,213.484 263.582,214.076 263.073 C 214.668 262.564,215.637 261.799,216.229 261.374 C 216.822 260.948,217.877 260.060,218.575 259.400 C 219.273 258.740,220.311 257.930,220.882 257.600 C 222.374 256.737,224.402 255.172,225.673 253.900 C 226.278 253.295,226.959 252.800,227.187 252.800 C 227.414 252.800,227.600 252.620,227.600 252.400 C 227.600 252.180,227.870 252.000,228.200 252.000 C 228.530 252.000,228.800 251.820,228.800 251.600 C 228.800 251.380,228.988 251.200,229.218 251.200 C 229.448 251.200,230.052 250.795,230.559 250.300 C 232.100 248.798,233.589 247.600,233.915 247.600 C 234.084 247.600,234.483 247.240,234.800 246.800 C 235.117 246.360,235.607 246.000,235.888 246.000 C 236.170 246.000,236.400 245.820,236.400 245.600 C 236.400 245.380,236.582 245.200,236.804 245.200 C 237.026 245.200,237.772 244.660,238.463 244.000 C 239.154 243.340,239.866 242.800,240.046 242.800 C 240.226 242.800,241.003 242.170,241.773 241.400 C 242.543 240.630,243.314 240.000,243.487 239.999 C 243.659 239.999,244.400 239.485,245.134 238.858 C 245.867 238.231,247.168 237.286,248.023 236.759 C 248.879 236.232,249.583 235.652,249.589 235.471 C 249.608 234.911,250.711 234.000,251.371 234.000 C 251.717 234.000,252.000 233.820,252.000 233.600 C 252.000 233.380,252.188 233.200,252.418 233.200 C 252.648 233.200,253.272 232.764,253.805 232.231 C 254.338 231.698,255.111 231.155,255.523 231.024 C 255.935 230.894,256.511 230.340,256.804 229.793 C 257.096 229.247,257.575 228.800,257.868 228.800 C 258.160 228.800,258.400 228.650,258.400 228.468 C 258.400 228.285,258.895 227.881,259.500 227.570 C 260.105 227.260,260.870 226.732,261.200 226.398 C 261.530 226.064,262.520 225.262,263.400 224.616 C 264.280 223.970,265.291 223.117,265.647 222.721 C 266.003 222.324,266.453 222.000,266.647 222.000 C 266.841 221.999,267.495 221.573,268.100 221.053 C 269.949 219.463,269.588 218.201,266.100 214.066 C 265.606 213.480,265.201 212.775,265.200 212.500 C 265.200 212.225,265.007 212.000,264.771 212.000 C 264.214 212.000,263.539 211.269,262.832 209.900 C 262.520 209.295,262.115 208.800,261.932 208.800 C 261.750 208.800,261.600 208.596,261.600 208.347 C 261.600 208.098,261.283 207.603,260.896 207.247 C 260.508 206.891,259.716 205.970,259.136 205.200 C 258.556 204.430,257.703 203.403,257.241 202.917 C 256.778 202.431,256.400 201.868,256.400 201.665 C 256.400 201.462,255.680 200.555,254.800 199.648 C 253.920 198.741,253.200 197.816,253.200 197.592 C 253.200 197.369,252.570 196.574,251.800 195.826 C 251.030 195.079,250.400 194.264,250.400 194.015 C 250.400 193.767,249.995 193.149,249.500 192.643 C 249.005 192.137,248.090 191.072,247.468 190.276 C 246.845 189.481,245.720 188.158,244.968 187.337 C 244.215 186.516,243.600 185.609,243.600 185.322 C 243.600 185.035,243.420 184.800,243.200 184.800 C 242.980 184.800,242.800 184.618,242.800 184.396 C 242.800 184.174,242.260 183.428,241.600 182.737 C 240.940 182.046,240.400 181.337,240.400 181.160 C 240.400 180.983,239.770 180.227,239.000 179.479 C 238.230 178.731,237.600 177.948,237.600 177.738 C 237.600 177.528,236.970 176.669,236.200 175.828 C 235.430 174.987,234.800 174.148,234.800 173.962 C 234.800 173.777,233.900 172.697,232.800 171.561 C 231.700 170.426,230.800 169.290,230.800 169.037 C 230.800 168.784,230.440 168.317,230.000 168.000 C 229.560 167.683,229.200 167.284,229.200 167.115 C 229.200 166.798,228.029 165.332,226.585 163.841 C 226.137 163.379,225.155 162.104,224.403 161.009 C 223.002 158.968,222.007 157.721,220.600 156.241 C 220.160 155.779,219.559 154.932,219.265 154.361 C 217.688 151.297,214.906 150.188,213.543 152.080 M377.800 164.486 C 377.360 164.740,376.805 165.140,376.566 165.374 C 376.327 165.608,375.630 166.160,375.016 166.600 C 374.402 167.040,373.500 167.785,373.013 168.255 C 372.525 168.726,371.423 169.565,370.563 170.120 C 369.703 170.676,368.513 171.596,367.917 172.165 C 367.322 172.734,366.685 173.200,366.501 173.200 C 366.317 173.200,365.499 173.830,364.682 174.600 C 363.866 175.370,363.045 176.000,362.858 176.000 C 362.672 176.000,361.993 176.495,361.350 177.100 C 360.708 177.705,359.466 178.731,358.591 179.379 C 357.716 180.028,356.709 180.883,356.353 181.279 C 355.997 181.676,355.547 182.000,355.353 182.001 C 355.159 182.001,354.370 182.541,353.600 183.200 C 352.830 183.859,352.070 184.399,351.911 184.399 C 351.751 184.400,350.811 185.210,349.821 186.200 C 348.831 187.190,347.823 188.000,347.582 188.000 C 347.340 188.000,346.915 188.225,346.637 188.500 C 346.359 188.775,345.630 189.360,345.016 189.800 C 344.402 190.240,343.517 190.967,343.050 191.415 C 342.582 191.863,341.300 192.845,340.200 193.598 C 339.100 194.351,337.851 195.289,337.425 195.683 C 336.998 196.078,336.479 196.400,336.272 196.400 C 336.064 196.400,335.300 197.030,334.574 197.800 C 333.848 198.570,333.062 199.200,332.827 199.200 C 332.592 199.200,332.400 199.380,332.400 199.600 C 332.400 199.820,332.170 200.000,331.888 200.000 C 331.607 200.000,331.117 200.360,330.800 200.800 C 330.483 201.240,330.034 201.600,329.803 201.600 C 329.572 201.600,328.536 202.377,327.502 203.327 C 326.467 204.277,325.166 205.297,324.610 205.594 C 324.055 205.892,323.600 206.285,323.600 206.468 C 323.600 206.650,323.330 206.800,323.000 206.800 C 322.670 206.800,322.400 206.950,322.400 207.132 C 322.400 207.315,321.905 207.720,321.300 208.032 C 319.947 208.730,318.400 210.210,318.400 210.805 C 318.400 211.048,318.240 211.149,318.045 211.028 C 317.850 210.907,317.468 211.077,317.196 211.404 C 316.924 211.732,316.520 212.000,316.298 212.000 C 316.076 212.000,315.603 212.324,315.247 212.719 C 314.891 213.114,313.970 213.870,313.200 214.397 C 312.430 214.925,311.404 215.771,310.919 216.278 C 310.435 216.785,309.876 217.200,309.678 217.200 C 309.481 217.200,308.754 217.740,308.063 218.400 C 307.372 219.060,306.706 219.600,306.582 219.600 C 306.459 219.600,305.737 220.095,304.979 220.700 L 303.600 221.800 303.600 226.117 C 303.600 228.981,303.768 230.637,304.100 231.039 C 304.375 231.371,305.185 232.258,305.900 233.008 C 306.615 233.759,307.200 234.572,307.200 234.815 C 307.200 235.058,307.425 235.494,307.700 235.784 C 308.840 236.985,309.600 238.033,309.600 238.405 C 309.600 238.622,309.780 238.800,310.000 238.800 C 310.220 238.800,310.400 239.070,310.400 239.400 C 310.400 239.730,310.593 240.000,310.829 240.000 C 311.382 240.000,312.400 241.018,312.400 241.571 C 312.400 241.807,312.580 242.000,312.800 242.000 C 313.020 242.000,313.200 242.235,313.200 242.522 C 313.200 242.809,313.830 243.731,314.600 244.572 C 315.370 245.413,316.003 246.213,316.006 246.350 C 316.009 246.488,316.729 247.396,317.606 248.368 C 318.483 249.340,319.200 250.303,319.200 250.507 C 319.200 250.712,319.740 251.383,320.400 252.000 C 321.060 252.617,321.600 253.303,321.600 253.526 C 321.600 253.749,322.230 254.580,323.000 255.373 C 323.770 256.166,324.400 256.965,324.400 257.148 C 324.400 257.331,324.940 258.046,325.600 258.737 C 326.260 259.428,326.800 260.174,326.800 260.396 C 326.800 260.618,326.980 260.800,327.200 260.800 C 327.420 260.800,327.600 261.051,327.600 261.359 C 327.600 261.666,328.230 262.470,329.000 263.146 C 329.770 263.822,330.400 264.611,330.400 264.899 C 330.400 265.188,330.760 265.683,331.200 266.000 C 331.640 266.317,332.000 266.807,332.000 267.088 C 332.000 267.370,332.168 267.600,332.373 267.600 C 332.578 267.600,332.850 267.915,332.977 268.300 C 333.193 268.954,334.486 270.618,336.386 272.686 C 336.834 273.173,337.200 273.692,337.200 273.839 C 337.200 273.986,337.532 274.397,337.937 274.753 C 338.343 275.109,338.897 275.819,339.168 276.332 C 339.750 277.428,340.723 278.664,341.700 279.546 C 342.085 279.894,342.400 280.336,342.400 280.528 C 342.400 280.721,342.940 281.383,343.600 282.000 C 344.260 282.617,344.800 283.277,344.800 283.468 C 344.800 283.807,347.047 286.710,349.011 288.907 C 349.555 289.516,350.000 290.191,350.000 290.407 C 350.000 290.623,350.180 290.800,350.400 290.800 C 350.620 290.800,350.800 290.990,350.800 291.222 C 350.800 291.454,351.339 292.219,351.998 292.922 C 352.657 293.625,353.197 294.327,353.198 294.482 C 353.199 294.637,353.612 295.177,354.115 295.682 C 354.618 296.187,355.646 297.500,356.400 298.600 C 357.154 299.700,358.137 300.996,358.585 301.481 C 359.960 302.967,360.400 303.552,360.400 303.895 C 360.400 304.076,360.760 304.483,361.200 304.800 C 361.640 305.117,362.000 305.569,362.000 305.804 C 362.000 306.040,362.720 307.028,363.600 308.000 C 364.480 308.972,365.200 309.904,365.200 310.071 C 365.200 310.237,365.830 311.003,366.600 311.773 C 367.370 312.543,368.000 313.314,368.001 313.487 C 368.001 313.659,368.541 314.430,369.200 315.200 C 369.859 315.970,370.399 316.738,370.399 316.906 C 370.400 317.074,371.210 318.045,372.200 319.064 C 373.190 320.083,374.000 321.083,374.000 321.287 C 374.000 321.490,374.225 321.885,374.500 322.163 C 374.775 322.441,375.360 323.165,375.800 323.773 C 377.278 325.816,378.716 327.200,379.360 327.200 C 379.944 327.200,380.000 320.108,380.000 245.600 C 380.000 155.763,380.199 163.101,377.800 164.486 M281.032 236.524 C 279.966 237.185,278.851 238.055,277.850 239.010 C 277.382 239.455,276.284 240.355,275.409 241.010 C 274.534 241.664,273.292 242.695,272.650 243.300 C 272.007 243.905,271.318 244.400,271.118 244.400 C 270.918 244.400,269.841 245.300,268.723 246.400 C 267.606 247.500,266.555 248.400,266.388 248.400 C 266.221 248.400,265.226 249.210,264.178 250.200 C 263.130 251.190,262.105 252.000,261.901 252.000 C 261.696 252.000,260.778 252.765,259.861 253.700 C 258.944 254.635,257.700 255.655,257.097 255.968 C 256.493 256.280,256.000 256.685,256.000 256.868 C 256.000 257.050,255.812 257.200,255.582 257.200 C 255.093 257.200,253.200 259.015,253.200 259.484 C 253.200 259.660,252.705 260.030,252.100 260.306 C 251.495 260.582,250.342 261.391,249.538 262.104 C 248.734 262.817,247.225 264.120,246.185 265.000 C 245.144 265.880,244.092 266.786,243.846 267.013 C 243.601 267.240,242.770 267.869,242.000 268.410 C 241.230 268.951,239.977 269.980,239.217 270.697 C 238.456 271.414,237.677 272.000,237.485 272.000 C 237.294 272.000,236.446 272.720,235.600 273.600 C 234.754 274.480,233.892 275.200,233.684 275.200 C 233.476 275.200,232.292 276.190,231.053 277.400 C 229.813 278.610,228.665 279.600,228.500 279.600 C 228.335 279.601,227.725 280.006,227.145 280.500 C 226.565 280.995,225.404 281.940,224.566 282.600 C 223.727 283.260,222.453 284.385,221.734 285.100 C 221.015 285.815,220.241 286.400,220.013 286.400 C 219.786 286.400,219.600 286.568,219.600 286.773 C 219.600 286.978,219.249 287.257,218.820 287.394 C 215.449 288.463,214.712 291.651,217.200 294.400 C 218.080 295.372,218.800 296.313,218.800 296.491 C 218.800 296.669,219.430 297.426,220.200 298.174 C 220.970 298.921,221.600 299.746,221.600 300.006 C 221.600 300.266,222.140 300.983,222.800 301.600 C 223.460 302.217,224.000 302.919,224.000 303.160 C 224.000 303.402,224.180 303.600,224.400 303.600 C 224.620 303.600,224.800 303.847,224.800 304.149 C 224.800 304.451,225.386 305.216,226.103 305.849 C 226.820 306.482,227.660 307.495,227.971 308.100 C 228.281 308.705,228.685 309.200,228.868 309.200 C 229.050 309.200,229.200 309.470,229.200 309.800 C 229.200 310.130,229.350 310.400,229.532 310.400 C 229.715 310.400,230.120 310.895,230.432 311.500 C 231.059 312.715,231.804 313.600,232.200 313.600 C 232.672 313.600,233.600 314.735,233.600 315.312 C 233.600 315.625,234.140 316.446,234.800 317.137 C 235.460 317.828,236.005 318.529,236.011 318.696 C 236.017 318.863,236.825 319.900,237.807 321.000 C 238.789 322.100,239.594 323.141,239.596 323.313 C 239.598 323.486,240.234 324.261,241.009 325.036 C 241.785 325.811,242.314 326.615,242.186 326.823 C 242.058 327.030,242.113 327.200,242.309 327.200 C 242.505 327.200,242.895 327.630,243.176 328.156 C 243.458 328.682,244.118 329.342,244.644 329.624 C 245.170 329.905,245.600 330.393,245.600 330.707 C 245.600 331.022,246.140 331.783,246.800 332.400 C 247.460 333.017,248.000 333.809,248.000 334.160 C 248.000 334.512,248.180 334.800,248.400 334.800 C 248.620 334.800,248.800 334.988,248.800 335.218 C 248.800 335.448,249.205 336.052,249.700 336.559 C 251.202 338.100,252.400 339.589,252.400 339.915 C 252.400 340.084,252.760 340.483,253.200 340.800 C 253.640 341.117,254.000 341.530,254.000 341.717 C 254.000 341.904,254.225 342.285,254.500 342.563 C 254.775 342.841,255.360 343.568,255.800 344.178 C 256.240 344.789,256.825 345.526,257.100 345.816 C 257.375 346.106,257.600 346.463,257.600 346.611 C 257.600 346.758,258.140 347.383,258.800 348.000 C 259.460 348.617,260.000 349.327,260.000 349.579 C 260.000 349.830,260.405 350.464,260.900 350.987 C 262.903 353.102,263.600 353.925,263.600 354.175 C 263.600 354.319,264.005 354.853,264.500 355.363 C 264.995 355.873,266.120 357.326,267.000 358.593 C 267.880 359.859,269.185 361.498,269.900 362.235 C 270.615 362.971,271.200 363.759,271.200 363.987 C 271.200 364.214,271.380 364.400,271.600 364.400 C 271.820 364.400,272.000 364.635,272.000 364.922 C 272.000 365.209,272.585 366.088,273.300 366.876 C 275.714 369.536,276.400 370.405,276.400 370.803 C 276.400 371.021,276.550 371.200,276.732 371.200 C 276.915 371.200,277.320 371.694,277.632 372.297 C 277.945 372.900,278.740 373.971,279.400 374.675 C 281.132 376.525,281.600 377.124,281.600 377.495 C 281.600 377.676,281.960 378.083,282.400 378.400 C 282.840 378.717,283.200 379.169,283.200 379.405 C 283.200 379.641,284.009 380.726,284.998 381.817 C 285.987 382.908,286.797 383.953,286.798 384.140 C 286.799 384.326,287.302 384.956,287.915 385.540 C 288.527 386.123,289.422 387.276,289.902 388.102 C 290.741 389.544,291.140 390.036,293.800 392.910 C 294.460 393.623,295.241 394.672,295.535 395.242 C 296.023 396.188,296.459 396.752,298.824 399.503 C 299.251 400.000,299.600 400.545,299.600 400.715 C 299.600 400.884,299.960 401.283,300.400 401.600 C 300.840 401.917,301.200 402.407,301.200 402.688 C 301.200 402.970,301.380 403.200,301.600 403.200 C 301.820 403.200,302.000 403.388,302.000 403.618 C 302.000 403.848,302.450 404.486,303.000 405.036 C 303.550 405.586,304.000 406.186,304.000 406.370 C 304.000 406.553,304.720 407.445,305.600 408.352 C 306.480 409.259,307.200 410.154,307.200 410.341 C 307.200 410.528,307.740 411.246,308.400 411.937 C 309.060 412.628,309.600 413.292,309.600 413.413 C 309.600 413.689,310.234 414.459,311.900 416.208 C 312.615 416.959,313.200 417.810,313.200 418.098 C 313.200 418.387,313.560 418.883,314.000 419.200 C 314.440 419.517,314.800 420.007,314.800 420.288 C 314.800 420.700,321.189 420.800,347.400 420.800 L 380.000 420.800 380.000 390.367 L 380.000 359.933 378.700 358.658 C 377.985 357.956,377.147 356.896,376.838 356.302 C 376.529 355.707,375.675 354.541,374.940 353.711 C 372.901 351.404,372.831 351.303,373.091 351.043 C 373.224 350.909,373.033 350.800,372.667 350.800 C 372.300 350.800,372.000 350.570,372.000 350.288 C 372.000 350.007,371.640 349.517,371.200 349.200 C 370.760 348.883,370.400 348.420,370.400 348.171 C 370.400 347.922,369.860 347.154,369.200 346.463 C 368.540 345.772,368.000 345.041,368.000 344.838 C 368.000 344.635,367.370 343.820,366.600 343.027 C 365.830 342.234,365.200 341.454,365.200 341.293 C 365.199 341.132,364.794 340.520,364.300 339.934 C 362.222 337.471,362.000 337.177,362.000 336.892 C 362.000 336.727,361.374 336.054,360.609 335.396 C 359.843 334.738,359.213 333.885,359.209 333.500 C 359.204 333.115,359.020 332.800,358.800 332.800 C 358.580 332.800,358.400 332.620,358.400 332.401 C 358.400 332.181,357.770 331.334,357.001 330.518 C 356.231 329.702,355.499 328.712,355.374 328.317 C 355.249 327.923,354.888 327.600,354.573 327.600 C 354.258 327.600,354.000 327.330,354.000 327.000 C 354.000 326.670,353.820 326.400,353.600 326.400 C 353.380 326.400,353.200 326.165,353.200 325.878 C 353.200 325.591,352.570 324.669,351.800 323.828 C 351.030 322.987,350.400 322.163,350.400 321.997 C 350.400 321.830,349.680 320.974,348.800 320.094 C 347.920 319.214,347.200 318.320,347.200 318.106 C 347.200 317.893,346.703 317.197,346.096 316.559 C 345.488 315.922,344.554 314.770,344.020 314.000 C 343.486 313.230,342.633 312.170,342.124 311.645 C 341.616 311.120,341.200 310.485,341.200 310.234 C 341.200 309.982,340.840 309.517,340.400 309.200 C 339.960 308.883,339.600 308.393,339.600 308.112 C 339.600 307.830,339.420 307.600,339.200 307.600 C 338.980 307.600,338.794 307.375,338.787 307.100 C 338.774 306.569,337.009 304.400,336.591 304.400 C 336.105 304.400,335.200 303.247,335.200 302.629 C 335.200 302.283,335.020 302.000,334.800 302.000 C 334.580 302.000,334.400 301.818,334.400 301.596 C 334.400 301.374,333.860 300.628,333.200 299.937 C 332.540 299.246,332.000 298.468,332.000 298.208 C 332.000 297.948,331.550 297.494,331.000 297.200 C 330.450 296.906,330.000 296.427,330.000 296.137 C 330.000 295.595,329.281 294.605,327.700 292.968 C 327.205 292.456,326.800 291.758,326.800 291.418 C 326.800 291.078,326.650 290.800,326.468 290.800 C 326.285 290.800,325.894 290.350,325.600 289.800 C 325.306 289.250,324.837 288.800,324.559 288.800 C 324.281 288.800,323.937 288.431,323.794 287.980 C 323.651 287.529,322.918 286.545,322.167 285.793 C 321.415 285.042,320.800 284.186,320.800 283.892 C 320.800 283.382,319.491 281.746,316.816 278.911 C 316.147 278.203,315.600 277.438,315.600 277.211 C 315.600 276.985,315.420 276.800,315.200 276.800 C 314.980 276.800,314.800 276.524,314.800 276.187 C 314.800 275.849,314.215 274.952,313.500 274.194 C 310.917 271.451,310.400 270.822,310.400 270.414 C 310.400 270.186,310.220 270.000,310.000 270.000 C 309.780 270.000,309.600 269.822,309.600 269.605 C 309.600 269.193,308.783 268.105,307.381 266.649 C 306.930 266.181,306.441 265.483,306.293 265.099 C 306.146 264.715,305.839 264.400,305.613 264.400 C 305.386 264.400,305.200 264.218,305.200 263.996 C 305.200 263.774,304.660 263.028,304.000 262.337 C 303.340 261.646,302.800 260.918,302.800 260.719 C 302.800 260.520,302.261 259.781,301.602 259.078 C 300.943 258.375,300.403 257.671,300.402 257.513 C 300.401 257.356,299.770 256.597,299.000 255.827 C 298.230 255.057,297.600 254.243,297.600 254.018 C 297.600 253.585,296.786 252.506,295.300 250.968 C 294.805 250.456,294.400 249.873,294.400 249.674 C 294.400 249.475,293.950 248.974,293.400 248.561 C 292.850 248.148,292.400 247.583,292.400 247.305 C 292.400 247.027,292.220 246.800,292.000 246.800 C 291.780 246.800,291.600 246.530,291.600 246.200 C 291.600 245.870,291.420 245.600,291.200 245.600 C 290.980 245.600,290.800 245.414,290.800 245.186 C 290.800 244.800,290.467 244.378,288.100 241.759 C 287.605 241.212,287.200 240.632,287.200 240.470 C 287.200 240.309,286.840 239.917,286.400 239.600 C 285.960 239.283,285.600 238.785,285.600 238.494 C 285.600 236.770,282.671 235.507,281.032 236.524 M92.000 247.084 C 91.230 247.682,90.330 248.449,90.000 248.788 C 89.670 249.128,88.905 249.660,88.300 249.970 C 87.695 250.281,87.200 250.685,87.200 250.868 C 87.200 251.050,87.026 251.200,86.813 251.200 C 86.601 251.200,85.797 251.830,85.027 252.600 C 84.257 253.370,83.480 254.000,83.302 254.000 C 83.123 254.000,82.717 254.360,82.400 254.800 C 82.083 255.240,81.593 255.600,81.312 255.600 C 81.030 255.600,80.800 255.780,80.800 256.000 C 80.800 256.220,80.607 256.400,80.371 256.400 C 80.136 256.400,79.715 256.625,79.437 256.900 C 79.159 257.175,78.435 257.760,77.827 258.200 C 77.219 258.640,76.217 259.450,75.601 260.000 C 73.980 261.446,73.176 262.088,71.600 263.193 C 69.785 264.465,69.200 265.044,69.200 265.571 C 69.200 265.807,68.739 266.000,68.176 266.000 C 67.596 266.000,67.260 266.173,67.400 266.400 C 67.536 266.620,67.439 266.800,67.184 266.800 C 66.929 266.800,66.217 267.340,65.600 268.000 C 64.983 268.660,64.306 269.200,64.095 269.200 C 63.885 269.200,63.057 269.817,62.258 270.572 C 61.458 271.326,60.218 272.352,59.502 272.853 C 58.786 273.353,57.909 274.086,57.553 274.481 C 57.197 274.876,56.703 275.200,56.455 275.200 C 56.207 275.200,55.183 276.010,54.179 277.000 C 53.175 277.990,52.133 278.800,51.865 278.800 C 51.596 278.800,51.117 279.160,50.800 279.600 C 50.483 280.040,50.033 280.400,49.800 280.400 C 49.567 280.400,49.117 280.760,48.800 281.200 C 48.483 281.640,47.993 282.000,47.712 282.000 C 47.430 282.000,47.200 282.150,47.200 282.332 C 47.200 282.515,46.750 282.906,46.200 283.200 C 45.650 283.494,45.200 283.931,45.200 284.170 C 45.200 284.409,44.696 284.828,44.080 285.100 C 43.465 285.373,42.272 286.227,41.430 286.998 C 40.588 287.769,39.786 288.400,39.648 288.400 C 39.509 288.400,38.631 289.120,37.697 290.000 C 36.763 290.880,35.845 291.600,35.659 291.600 C 35.472 291.600,34.793 292.095,34.150 292.700 C 33.508 293.305,32.266 294.331,31.391 294.979 C 30.516 295.628,29.530 296.438,29.199 296.779 C 28.868 297.121,28.127 297.670,27.551 298.000 C 26.444 298.634,23.294 301.188,21.753 302.700 C 21.249 303.195,20.648 303.600,20.418 303.600 C 20.188 303.600,20.000 303.780,20.000 304.000 C 20.000 304.220,19.730 304.400,19.400 304.400 C 19.070 304.400,18.800 304.580,18.800 304.800 C 18.800 305.020,18.607 305.200,18.371 305.200 C 16.759 305.200,16.800 303.740,16.800 360.971 C 16.800 405.542,16.896 415.600,17.320 415.600 C 18.313 415.600,19.972 414.595,20.450 413.705 C 20.714 413.212,21.441 412.583,22.065 412.307 C 22.689 412.031,23.200 411.669,23.200 411.502 C 23.200 411.336,23.430 411.200,23.712 411.200 C 23.993 411.200,24.483 410.840,24.800 410.400 C 25.117 409.960,25.607 409.600,25.888 409.600 C 26.170 409.600,26.400 409.420,26.400 409.200 C 26.400 408.980,26.604 408.800,26.853 408.800 C 27.102 408.800,27.900 408.170,28.626 407.400 C 29.352 406.630,30.112 406.000,30.314 406.000 C 30.516 406.000,31.206 405.505,31.848 404.900 C 32.489 404.295,33.521 403.536,34.141 403.214 C 34.760 402.892,35.787 402.037,36.422 401.314 C 37.056 400.591,37.811 400.000,38.099 400.000 C 38.388 400.000,38.883 399.640,39.200 399.200 C 39.517 398.760,40.007 398.400,40.288 398.400 C 40.570 398.400,40.800 398.250,40.800 398.068 C 40.800 397.885,41.295 397.480,41.900 397.168 C 43.231 396.481,44.800 394.993,44.800 394.418 C 44.800 394.188,45.160 394.000,45.600 394.000 C 46.040 394.000,46.400 393.820,46.400 393.600 C 46.400 393.380,46.630 393.200,46.912 393.200 C 47.193 393.200,47.683 392.840,48.000 392.400 C 48.317 391.960,48.715 391.600,48.884 391.600 C 49.234 391.600,50.378 390.701,52.067 389.100 C 52.705 388.495,53.364 388.000,53.530 388.000 C 53.696 388.000,54.628 387.280,55.600 386.400 C 56.572 385.520,57.600 384.800,57.884 384.800 C 58.168 384.800,58.400 384.620,58.400 384.400 C 58.400 384.180,58.640 384.000,58.932 384.000 C 59.225 384.000,59.706 383.550,60.000 383.000 C 60.294 382.450,60.825 382.000,61.179 382.000 C 61.534 382.000,62.083 381.640,62.400 381.200 C 62.717 380.760,63.217 380.400,63.512 380.400 C 63.806 380.400,63.936 380.220,63.800 380.000 C 63.664 379.780,63.830 379.600,64.169 379.600 C 64.508 379.600,65.600 378.820,66.595 377.866 C 67.590 376.913,68.851 375.894,69.396 375.602 C 69.941 375.311,70.742 374.741,71.177 374.336 C 71.611 373.931,72.109 373.600,72.284 373.600 C 72.459 373.600,73.471 372.790,74.535 371.800 C 75.598 370.810,76.733 370.000,77.057 370.000 C 77.382 370.000,77.536 369.820,77.400 369.600 C 77.264 369.380,77.345 369.200,77.580 369.200 C 77.815 369.200,78.572 368.660,79.263 368.000 C 79.954 367.340,80.762 366.800,81.059 366.800 C 81.357 366.800,81.600 366.620,81.600 366.400 C 81.600 366.180,81.772 366.000,81.982 366.000 C 82.192 366.000,82.793 365.595,83.319 365.100 C 85.643 362.909,87.291 361.573,88.335 361.034 C 88.954 360.714,90.022 359.945,90.710 359.326 C 91.398 358.707,92.600 357.661,93.382 357.003 L 94.803 355.805 94.701 301.008 C 94.589 240.325,94.818 244.896,92.000 247.084 " stroke="none" fill="#d29747" fill-rule="evenodd"></path></g></svg>