<svg id="svg" version="1.1" width="400" height="407.67263427109975" viewBox="0 0 400 407.67263427109975" xmlns="http://www.w3.org/2000/svg" xmlns:xlink="http://www.w3.org/1999/xlink" ><g id="svgg"><path id="path0" d="M315.130 29.500 C 323.781 29.560,337.821 29.560,346.330 29.500 C 354.838 29.440,347.760 29.390,330.600 29.390 C 313.440 29.390,306.478 29.440,315.130 29.500 M368.000 202.925 C 368.000 202.994,368.585 203.579,369.300 204.225 L 370.600 205.400 369.425 204.100 C 368.330 202.888,368.000 202.616,368.000 202.925 M216.622 268.025 C 217.490 269.029,218.281 269.788,218.380 269.712 C 218.480 269.635,217.770 268.814,216.803 267.886 L 215.044 266.200 216.622 268.025 M262.775 314.092 C 263.751 315.132,264.636 315.897,264.742 315.792 C 264.847 315.686,264.856 315.555,264.761 315.500 C 264.665 315.445,263.780 314.680,262.794 313.800 L 261.000 312.201 262.775 314.092 " stroke="none" fill="#000000" fill-rule="evenodd"></path><path id="path1" d="M273.067 5.067 C 272.920 5.213,272.800 38.047,272.800 78.031 L 272.800 150.728 318.400 196.305 L 364.000 241.883 364.000 306.941 L 364.000 372.000 342.626 372.000 L 321.253 372.000 301.852 352.700 C 285.165 336.099,271.435 322.513,261.126 312.400 C 259.668 310.970,255.264 306.587,251.338 302.660 C 247.412 298.733,243.258 294.593,242.107 293.460 C 240.956 292.327,237.703 289.060,234.878 286.200 C 232.053 283.340,220.238 271.640,208.623 260.200 C 197.008 248.760,186.851 238.696,186.052 237.836 C 184.442 236.103,178.747 230.430,172.132 223.969 C 169.749 221.642,166.865 218.762,165.723 217.569 C 164.580 216.376,150.455 202.350,134.334 186.400 C 118.212 170.450,103.723 156.095,102.135 154.500 C 100.547 152.905,99.057 151.600,98.824 151.600 C 98.531 151.600,98.400 157.909,98.400 172.050 L 98.400 192.500 100.500 194.505 C 105.546 199.325,126.591 219.927,127.737 221.169 C 128.432 221.923,131.228 224.713,133.950 227.369 C 136.673 230.026,142.351 235.620,146.568 239.800 C 150.785 243.980,162.482 255.500,172.560 265.400 C 182.638 275.300,194.610 287.090,199.165 291.600 C 203.720 296.110,213.527 305.740,220.959 313.000 C 228.391 320.260,235.130 326.906,235.936 327.769 C 236.741 328.632,238.825 330.702,240.567 332.369 C 242.309 334.036,247.371 339.000,251.815 343.400 C 256.259 347.800,268.028 359.410,277.969 369.200 C 287.909 378.990,299.278 390.195,303.233 394.100 L 310.423 401.200 350.012 401.200 L 389.600 401.200 389.600 312.761 L 389.600 224.323 370.245 205.061 C 347.214 182.143,354.599 189.529,324.700 159.507 L 299.600 134.304 299.600 81.752 L 299.600 29.200 330.600 29.200 L 361.600 29.200 361.600 94.185 L 361.600 159.171 364.100 161.213 C 368.498 164.807,370.059 166.159,371.950 168.013 C 374.758 170.764,381.621 176.900,383.200 178.070 C 383.970 178.641,385.437 179.894,386.460 180.854 C 388.703 182.959,389.942 184.000,390.205 184.000 C 390.312 184.000,390.400 143.680,390.400 94.400 L 390.400 4.800 331.867 4.800 C 299.673 4.800,273.213 4.920,273.067 5.067 " stroke="none" fill="#0071aa" fill-rule="evenodd"></path><path id="path2" d="" stroke="none" fill="#ff0000" fill-rule="evenodd"></path><path id="path3" d="M13.600 93.665 L 13.600 176.930 57.400 220.721 L 101.200 264.512 101.200 314.456 L 101.200 364.400 69.200 364.400 L 37.200 364.400 37.200 304.532 L 37.200 244.665 25.300 232.739 C 18.755 226.180,13.178 220.811,12.908 220.807 C 12.084 220.795,12.062 221.422,11.590 259.200 C 11.338 279.330,11.021 296.070,10.885 296.400 C 10.680 296.901,9.825 335.896,8.953 384.500 L 8.754 395.600 67.377 395.600 L 126.000 395.600 126.000 323.827 L 126.000 252.054 81.800 207.864 L 37.600 163.674 37.600 99.637 L 37.600 35.600 58.500 35.605 L 79.400 35.610 106.456 62.505 C 121.337 77.297,149.656 105.420,169.389 125.000 C 189.121 144.580,216.881 172.157,231.077 186.282 C 267.993 223.013,293.491 248.164,293.979 248.326 C 294.269 248.423,294.400 242.942,294.400 230.645 L 294.400 212.824 193.159 111.612 L 91.918 10.400 52.759 10.400 L 13.600 10.400 13.600 93.665 " stroke="none" fill="#fe8a07" fill-rule="evenodd"></path><path id="path4" d="" stroke="none" fill="#ffff00" fill-rule="evenodd"></path></g></svg>